<svg width="22" height="25" viewBox="0 0 22 25" fill="none" xmlns="http://www.w3.org/2000/svg">
<path d="M14.6667 5.70001C14.1803 5.69989 13.7139 5.50657 13.3701 5.16258C13.0263 4.81859 12.8332 4.35211 12.8333 3.86576C12.8335 3.37941 13.0268 2.91303 13.3708 2.56921C13.7148 2.22539 14.1812 2.03231 14.6676 2.03243C14.9084 2.03249 15.1468 2.07998 15.3693 2.17219C15.5918 2.26441 15.7939 2.39953 15.9641 2.56986C16.1344 2.74018 16.2694 2.94237 16.3615 3.16488C16.4536 3.38739 16.501 3.62586 16.5009 3.86668C16.5009 4.1075 16.4534 4.34594 16.3612 4.56841C16.2689 4.79087 16.1338 4.99299 15.9635 5.16323C15.7932 5.33347 15.591 5.4685 15.3685 5.5606C15.146 5.6527 14.9075 5.70007 14.6667 5.70001ZM18.2032 2.95001C17.7934 1.37335 16.3698 0.200012 14.6667 0.200012C12.9635 0.200012 11.5399 1.37335 11.1302 2.95001H0V4.78335H11.1302C11.5399 6.36001 12.9635 7.53335 14.6667 7.53335C16.3698 7.53335 17.7934 6.36001 18.2032 4.78335H22V2.95001H18.2032ZM14.6667 22.2C14.4258 22.2 14.1874 22.1525 13.9649 22.0602C13.7425 21.968 13.5404 21.8329 13.3701 21.6626C13.1999 21.4923 13.0648 21.2901 12.9727 21.0676C12.8806 20.845 12.8333 20.6066 12.8333 20.3658C12.8334 20.1249 12.8809 19.8865 12.9731 19.664C13.0653 19.4416 13.2004 19.2395 13.3708 19.0692C13.5411 18.899 13.7433 18.7639 13.9658 18.6718C14.1883 18.5797 14.4268 18.5324 14.6676 18.5324C15.1539 18.5326 15.6203 18.7259 15.9641 19.0699C16.308 19.4138 16.501 19.8803 16.5009 20.3667C16.5008 20.853 16.3075 21.3194 15.9635 21.6632C15.6195 22.007 15.153 22.2001 14.6667 22.2ZM14.6667 16.7C12.9635 16.7 11.5399 17.8733 11.1302 19.45H0V21.2833H11.1302C11.5399 22.86 12.9635 24.0333 14.6667 24.0333C16.3698 24.0333 17.7934 22.86 18.2032 21.2833H22V19.45H18.2032C17.7934 17.8733 16.3698 16.7 14.6667 16.7ZM7.33333 13.95C7.09252 13.95 6.85407 13.9025 6.63161 13.8102C6.40914 13.718 6.20702 13.5829 6.03678 13.4126C5.86654 13.2423 5.73151 13.0401 5.63941 12.8176C5.54731 12.595 5.49994 12.3566 5.5 12.1158C5.50006 11.8749 5.54755 11.6365 5.63976 11.414C5.73198 11.1916 5.8671 10.9895 6.03743 10.8192C6.20776 10.649 6.40995 10.5139 6.63245 10.4218C6.85496 10.3297 7.09343 10.2824 7.33425 10.2824C7.8206 10.2825 8.28699 10.4759 8.6308 10.8199C8.97462 11.1638 9.16771 11.6303 9.16758 12.1167C9.16746 12.603 8.97414 13.0694 8.63015 13.4132C8.28617 13.757 7.81969 13.9501 7.33333 13.95ZM7.33333 8.45001C5.63017 8.45001 4.20658 9.62335 3.79683 11.2H0V13.0333H3.79683C4.20658 14.61 5.63017 15.7833 7.33333 15.7833C9.0365 15.7833 10.4601 14.61 10.8698 13.0333H22V11.2H10.8698C10.4601 9.62335 9.0365 8.45001 7.33333 8.45001Z" fill="#0E0E0E"/>
</svg>
