<svg width="16" height="16" viewBox="0 0 16 16" fill="none" xmlns="http://www.w3.org/2000/svg">
<path d="M0.03419 8.67141H15.4387V8.67164H0.03419V8.67141ZM0.836528 4.44787H14.6358V4.4481H0.836528V4.44787ZM0.287785 5.8555H15.184V5.85573H0.287785V5.8555ZM3.32459 14.3022H12.1478L12.1483 14.3018H3.3241L3.32459 14.3022ZM7.7361 0.210938C7.58413 0.210938 7.43337 0.216426 7.28372 0.224984H8.18857C8.03879 0.216426 7.88806 0.210938 7.7361 0.210938ZM0.03125 7.26345H15.4407V7.26368H0.03125V7.26345Z" fill="#E5333C"/>
<path d="M10.0233 3.04018H13.7177C13.2789 2.50598 12.7689 2.03309 12.2038 1.63275H9.42969C9.65924 2.03662 9.85665 2.51316 10.0233 3.04018Z" fill="#E7E7E7"/>
<path d="M9.42809 1.63435H12.2023C11.0554 0.821628 9.67852 0.312673 8.18743 0.226562H7.94922C8.65104 0.314895 8.9734 0.834302 9.42809 1.63435Z" fill="#E5333C"/>
<path d="M15.1857 5.85665C15.0495 5.37063 14.8657 4.89921 14.637 4.44922H10.3867C10.4728 4.9011 10.5408 5.37311 10.5911 5.85665H15.1857Z" fill="#E7E7E7"/>
<path d="M10.1476 4.44672H14.6368C14.381 3.94355 14.0736 3.47138 13.7184 3.03906H9.79688C9.93516 3.47677 10.0526 3.94894 10.1476 4.44672Z" fill="#E5333C"/>
<path d="M10.7539 8.67316H15.4394C15.4616 8.43508 15.4742 8.1938 15.4742 7.94997C15.4742 7.71921 15.4621 7.49139 15.4423 7.26562H10.755C10.7703 7.73468 10.77 8.20412 10.7539 8.67316Z" fill="#E7E7E7"/>
<path d="M15.4432 7.2629C15.4015 6.78681 15.3156 6.31564 15.1865 5.85547H10.3945C10.4426 6.31637 10.4744 6.78792 10.49 7.2629H15.4432Z" fill="#E5333C"/>
<path d="M10.3047 11.4858H14.6155C14.8474 11.0361 15.0342 10.5646 15.1733 10.0781H10.5131C10.4618 10.5624 10.3921 11.0343 10.3047 11.4858Z" fill="#E7E7E7"/>
<path d="M15.1729 10.0793C15.3048 9.61942 15.3934 9.14824 15.4377 8.67188H10.6061C10.5896 9.14721 10.5569 9.61863 10.5078 10.0793H15.1729Z" fill="#E5333C"/>
<path d="M12.1479 14.302C12.7211 13.9032 13.2383 13.4298 13.6841 12.8945H10.0541C9.88438 13.4237 9.68292 13.8995 9.44922 14.302H12.1479Z" fill="#E7E7E7"/>
<path d="M9.91922 12.892H13.6858C14.0452 12.4602 14.3572 11.988 14.6168 11.4844H10.2743C10.178 11.9825 10.0594 12.4549 9.91922 12.892ZM7.45707 15.6769C7.44142 15.6765 7.4258 15.6757 7.41016 15.6752C7.4258 15.6757 7.44145 15.6765 7.45707 15.6769ZM7.73745 15.6824C9.3777 15.6824 10.8975 15.1704 12.1492 14.3001H9.34912C8.85215 15.1563 8.52427 15.6824 7.73745 15.6824Z" fill="#E5333C"/>
<path d="M7.73738 15.6852C7.64343 15.6852 7.5501 15.683 7.45703 15.6797C7.55108 15.6829 7.64451 15.6852 7.73738 15.6852Z" fill="#E5333C"/>
<path d="M9.68425 1.63281H3.26787C2.70276 2.03315 2.19285 2.50601 1.75391 3.04024H10.2777C10.1111 2.51323 9.9138 2.03668 9.68425 1.63281Z" fill="#F3F4F5"/>
<path d="M3.26953 1.63435H9.68592C9.23112 0.834302 8.65269 0.314895 7.95087 0.226562H7.28423C5.79313 0.312673 4.41625 0.821628 3.26953 1.63435Z" fill="#E5333C"/>
<path d="M0.289062 5.85665H10.835C10.7847 5.37301 10.7167 4.9011 10.6306 4.44922H0.837806C0.609109 4.8992 0.425307 5.37062 0.289062 5.85665Z" fill="#F3F4F5"/>
<path d="M1.75421 3.03906C1.39922 3.47138 1.09162 3.94352 0.835938 4.44672H10.6286C10.5337 3.94904 10.4163 3.4769 10.278 3.03906H1.75421Z" fill="#E5333C"/>
<path d="M0 7.94597C0 8.18979 0.0127075 8.43107 0.0348232 8.66915H10.929C10.9452 8.20126 10.9454 7.72984 10.9301 7.26172H0.0318832C0.0120869 7.48738 0 7.7152 0 7.94597Z" fill="#F3F4F5"/>
<path d="M0.03125 7.2629H10.9294C10.9142 6.79278 10.8824 6.32334 10.834 5.85547H0.287785C0.15876 6.31563 0.0728775 6.78681 0.03125 7.2629Z" fill="#E5333C"/>
<path d="M10.8318 10.0781H0.300781C0.439894 10.5646 0.626732 11.0361 0.858573 11.4858H10.6234C10.7109 11.0344 10.7804 10.5625 10.8318 10.0781Z" fill="#F3F4F5"/>
<path d="M0.299989 10.0793H10.831C10.88 9.61863 10.9129 9.14708 10.9294 8.67188H0.0351562C0.0795095 9.14823 0.168171 9.61941 0.299989 10.0793Z" fill="#E5333C"/>
<path d="M3.32524 14.302H9.66296C9.89666 13.8994 10.0982 13.4237 10.2678 12.8945H1.78906C2.23569 13.4304 2.75238 13.9038 3.32524 14.302Z" fill="#F3F4F5"/>
<path d="M0.855469 11.4844C1.11507 11.988 1.42705 12.4602 1.78645 12.892H10.2652C10.4052 12.4549 10.5238 11.9825 10.6202 11.4844H0.855469ZM7.40732 15.6752C7.42297 15.6757 7.43859 15.6765 7.45424 15.6769C7.54734 15.6802 7.64067 15.6824 7.73458 15.6824C8.52144 15.6824 9.16302 15.1563 9.66008 14.3001H3.32311C4.49087 15.1122 5.89255 15.6121 7.40732 15.6752Z" fill="#E5333C"/>
<path d="M7.57518 0.214844C3.61046 0.295499 0.379025 3.35671 0.03125 7.2506H7.57531V0.214844H7.57518Z" fill="#283991"/>
<path d="M1.54943 4.59344L1.66729 4.95637H2.04917L1.74023 5.18079L1.85823 5.54399L1.54943 5.31943L1.24072 5.54399L1.35849 5.18079L1.04965 4.95637H1.43153L1.54943 4.59344ZM1.54943 5.87566L1.66729 6.23882H2.04917L1.74023 6.46324L1.85823 6.82643L1.54943 6.60188L1.24072 6.82643L1.35849 6.46324L1.04965 6.23882H1.43153L1.54943 5.87566ZM2.83187 2.66963L2.94977 3.0327H3.33152L3.02268 3.25725L3.14058 3.62018L2.83187 3.39589L2.52304 3.62018L2.64093 3.25725L2.33197 3.0327H2.71385L2.83187 2.66963ZM2.83187 3.95208L2.94977 4.31514H3.33152L3.02268 4.53944L3.14058 4.90263L2.83187 4.67834L2.52304 4.90263L2.64093 4.53944L2.33197 4.31514H2.71385L2.83187 3.95208ZM2.83187 5.23453L2.94977 5.59772H3.33152L3.02268 5.82189L3.14058 6.18508L2.83187 5.96056L2.52304 6.18508L2.64093 5.82189L2.33197 5.59772H2.71385L2.83187 5.23453ZM0.575781 6.18508L0.457787 5.82189L0.766622 5.59759H0.384972L0.376413 5.5711C0.334559 5.70118 0.296313 5.83238 0.261719 5.96458L0.267109 5.96056L0.575781 6.18508ZM1.24072 4.26154L1.54943 4.03702L1.85826 4.26154L1.74027 3.89834L2.0491 3.67382H1.66722L1.54933 3.31089L1.43143 3.67382H1.2907C1.26457 3.71342 1.23928 3.75324 1.21387 3.79342L1.35852 3.89834L1.24072 4.26154ZM2.83187 2.11344L3.14058 2.33774L3.02268 1.9748L3.33139 1.75028H3.11088C2.9237 1.89015 2.74299 2.03848 2.56933 2.19482L2.52278 2.33774L2.83187 2.11344ZM3.80549 1.69664L4.11432 1.47212L4.42303 1.69664L4.30513 1.33345L4.61383 1.10916H4.23209L4.21608 1.06029C4.08672 1.12637 3.95869 1.19514 3.83358 1.26831L3.92325 1.33342L3.80549 1.69664ZM4.11432 2.02854L4.23222 2.39138H4.61397L4.30513 2.6159L4.42303 2.97909L4.11432 2.75454L3.80549 2.97909L3.92338 2.6159L3.61445 2.39138H3.99629L4.11432 2.02854ZM4.11432 3.31099L4.23222 3.67382H4.61397L4.30513 3.89834L4.42303 4.26154L4.11432 4.03698L3.80549 4.26154L3.92338 3.89834L3.61445 3.67382H3.99629L4.11432 3.31099ZM4.11432 4.59344L4.23222 4.95637H4.61397L4.30513 5.18079L4.42303 5.54399L4.11432 5.31943L3.80549 5.54399L3.92338 5.18079L3.61445 4.95637H3.99629L4.11432 4.59344ZM4.11432 5.87566L4.23222 6.23882H4.61397L4.30513 6.46324L4.42303 6.82643L4.11432 6.60188L3.80549 6.82643L3.92338 6.46324L3.61445 6.23882H3.99629L4.11432 5.87566ZM5.39677 1.38719L5.51466 1.75025H5.89641L5.58771 1.9748L5.70547 2.33774L5.39677 2.11344L5.08784 2.33774L5.20583 1.9748L4.8969 1.75025H5.27874L5.39677 1.38719ZM5.39677 2.66963L5.51466 3.0327H5.89641L5.58771 3.25725L5.70547 3.62018L5.39677 3.39589L5.08784 3.62018L5.20583 3.25725L4.8969 3.0327H5.27874L5.39677 2.66963ZM5.39677 3.95208L5.51466 4.31514H5.89641L5.58771 4.53944L5.70547 4.90263L5.39677 4.67834L5.08784 4.90263L5.20583 4.53944L4.8969 4.31514H5.27874L5.39677 3.95208ZM5.39677 5.23453L5.51466 5.59772H5.89641L5.58771 5.82189L5.70547 6.18508L5.39677 5.96056L5.08784 6.18508L5.20583 5.82189L4.8969 5.59772H5.27874L5.39677 5.23453ZM6.67922 0.746094L6.79711 1.10916H7.17886L6.87002 1.33345L6.98792 1.69664L6.67922 1.47209L6.37028 1.69664L6.48828 1.33345L6.17934 1.10916H6.56109L6.67922 0.746094ZM6.67922 2.02854L6.79711 2.39138H7.17886L6.87002 2.6159L6.98792 2.97909L6.67922 2.75454L6.37028 2.97909L6.48828 2.6159L6.17934 2.39138H6.56109L6.67922 2.02854ZM6.67922 3.31099L6.79711 3.67382H7.17886L6.87002 3.89834L6.98792 4.26154L6.67922 4.03698L6.37028 4.26154L6.48828 3.89834L6.17934 3.67382H6.56109L6.67922 3.31099ZM6.67922 4.59344L6.79711 4.95637H7.17886L6.87002 5.18079L6.98792 5.54399L6.67922 5.31943L6.37028 5.54399L6.48828 5.18079L6.17934 4.95637H6.56109L6.67922 4.59344ZM6.67922 5.87566L6.79711 6.23882H7.17886L6.87002 6.46324L6.98792 6.82643L6.67922 6.60188L6.37028 6.82643L6.48828 6.46324L6.17934 6.23882H6.56109L6.67922 5.87566Z" fill="#EFEFEF"/>
</svg>
