<svg width="122" height="33" viewBox="0 0 122 33" fill="none" xmlns="http://www.w3.org/2000/svg">
<path d="M108.083 7.57689H12.9055C12.6308 7.57689 12.3682 7.68987 12.1794 7.88932L1.09049 19.5998C0.725319 19.9855 0.725319 20.5893 1.09049 20.975L12.1794 32.6855C12.3682 32.885 12.6308 32.9979 12.9055 32.9979H108.083C108.083 32.9979 118.926 32.9979 121.347 20.2874C123.232 10.3878 117.486 3.50528 114.852 0.945312C114.852 0.945312 114.426 1.6069 114.164 2.05058C113.967 2.40461 113.611 3.15584 113.611 3.15584C113.611 3.15584 113.813 5.1619 113.056 5.919C111.396 7.57689 108.083 7.57689 108.083 7.57689Z" fill="#131416"/>
</svg>
