<svg width="24" height="24" viewBox="0 0 24 24" fill="none" xmlns="http://www.w3.org/2000/svg">
<path d="M10.7489 2.44982C11.4389 1.85982 12.5689 1.85982 13.2689 2.44982L14.8489 3.80982C15.1489 4.06982 15.7089 4.27982 16.1089 4.27982H17.8089C18.8689 4.27982 19.7389 5.14982 19.7389 6.20982V7.90982C19.7389 8.29982 19.9489 8.86982 20.2089 9.16982L21.5689 10.7498C22.1589 11.4398 22.1589 12.5698 21.5689 13.2698L20.2089 14.8498C19.9489 15.1498 19.7389 15.7098 19.7389 16.1098V17.8098C19.7389 18.8698 18.8689 19.7398 17.8089 19.7398H16.1089C15.7189 19.7398 15.1489 19.9498 14.8489 20.2098L13.2689 21.5698C12.5789 22.1598 11.4489 22.1598 10.7489 21.5698L9.16891 20.2098C8.86891 19.9498 8.30891 19.7398 7.90891 19.7398H6.17891C5.11891 19.7398 4.24891 18.8698 4.24891 17.8098V16.0998C4.24891 15.7098 4.03891 15.1498 3.78891 14.8498L2.43891 13.2598C1.85891 12.5698 1.85891 11.4498 2.43891 10.7598L3.78891 9.16982C4.03891 8.86982 4.24891 8.30982 4.24891 7.91982V6.19982C4.24891 5.13982 5.11891 4.26982 6.17891 4.26982H7.90891C8.29891 4.26982 8.86891 4.05982 9.16891 3.79982L10.7489 2.44982Z" fill="#4588FF"/>
<path d="M8.37891 12.0001L10.7889 14.4201L15.6189 9.58008" stroke="white" stroke-width="1.5" stroke-linecap="round" stroke-linejoin="round"/>
</svg>
