<svg width="24" height="18" viewBox="0 0 24 18" fill="none" xmlns="http://www.w3.org/2000/svg">
<path d="M9.54463 12.5475V5.41225L15.8173 8.98028L9.54463 12.5475ZM23.4967 3.16612C23.2134 2.12508 22.4132 1.32009 21.3962 1.03522L21.3746 1.03042C18.8196 0.705547 15.8645 0.519904 12.8654 0.519904C12.5605 0.519904 12.2565 0.521504 11.9532 0.525505L11.9996 0.524705C11.7419 0.521505 11.4387 0.519104 11.1338 0.519104C8.1347 0.519104 5.17801 0.704747 2.27573 1.06403L2.62301 1.02882C1.58517 1.31929 0.784983 2.12348 0.507318 3.14372L0.502517 3.16452C0.182443 4.85212 0 6.79417 0 8.77863C0 8.84905 3.73548e-08 8.91946 0.000800224 8.98908V8.97788C0.000800224 9.03709 0 9.10751 0 9.17792C0 11.1624 0.183243 13.1036 0.532924 14.9865L0.502517 14.7912C0.785783 15.8323 1.58597 16.6373 2.60301 16.9221L2.62461 16.9269C5.17961 17.2518 8.1347 17.4375 11.1338 17.4375C11.4379 17.4375 11.7419 17.4359 12.046 17.4319L11.9996 17.4327C12.2573 17.4359 12.5613 17.4383 12.8654 17.4383C15.8653 17.4383 18.8212 17.2526 21.7235 16.8933L21.3762 16.9285C22.4148 16.6389 23.215 15.8339 23.4935 14.8136L23.4983 14.7928C23.8176 13.1052 24 11.1632 24 9.17953C24 9.10911 24 9.03869 23.9992 8.96908V8.97948C23.9992 8.92026 24 8.84985 24 8.77943C24 6.79497 23.8168 4.85372 23.4671 2.97088L23.4967 3.16612Z" fill="black"/>
</svg>
